# xmcd
#
# Track frame offsets: 
#        183
#        15908
#        32720
#        54533
#        72195
#        86973
#        103913
#        123363
#        140708
#        155740
#
# Disc length: 2467 seconds
#
# Revision: 0
# Processed by: cddbd v1.5.2PL0 Copyright (c) Steve Scherf et al.
# Submitted via: ExactAudioCopy v1.3
#
DISCID=8a09a10a
DTITLE=Marina Barone  - Cherchez La Femme
DYEAR=1989
DGENRE=POP
TTITLE0=Cherchez La Femme
TTITLE1=Grazie Amore
TTITLE2=Ti Senti Uomo
TTITLE3=Cara Amica Mia
TTITLE4=Ali
TTITLE5=Io Ti Ho Incontrato
TTITLE6=Mentirsi Un Momento
TTITLE7=Quel Che Ti Daro'
TTITLE8=Solo Una Ragione
TTITLE9=Cherchez La Femme (Vers.Mix)
EXTD=
EXTT0=
EXTT1=
EXTT2=
EXTT3=
EXTT4=
EXTT5=
EXTT6=
EXTT7=
EXTT8=
EXTT9=
PLAYORDER=
